# xmcd
#
# Track frame offsets: 
#        150
#        18882
#        34285
#        53646
#        77180
#        99204
#        117486
#        134114
#        157996
#        175297
#
# Disc length: 2527 seconds
#
# Revision: 0
# Processed by: cddbd v1.5.2PL0 Copyright (c) Steve Scherf et al.
# Submitted via: ExactAudioCopyFreeDBPlugin 1.0
#
DISCID=7d09dd0a
DTITLE=Thorbjørn Risager and The Black Tornado - Come On In
DYEAR=2020
DGENRE=Blues
TTITLE0=Come On In
TTITLE1=Last Train
TTITLE2=Nobody But The Moon
TTITLE3=Two Lovers
TTITLE4=Never Givin' In
TTITLE5=Sin City
TTITLE6=Over The Hill
TTITLE7=On And On
TTITLE8=Love So Fine
TTITLE9=I'll Be Gone
EXTD=
EXTT0=
EXTT1=
EXTT2=
EXTT3=
EXTT4=
EXTT5=
EXTT6=
EXTT7=
EXTT8=
EXTT9=
PLAYORDER=
